# xmcd
#
# Track frame offsets:
#	150
#	15300
#	35474
#	62178
#	90773
#	121194
#	161109
#	197445
#	231900
#	251506
#
# Disc length: 4036 seconds
#
# Revision: 1
# Processed by: cddbd v1.5.1PL2 Copyright (c) Steve Scherf et al.
# Submitted via: EasyCDDAExtractor 9.0.0.1
#
DISCID=710fc20a
DTITLE=Black Sabbath - Brendan Byrne Arena East Rutherford 22-08-82 Disc 1
DYEAR=1982
DGENRE=Hard Rock
TTITLE0=E5150
TTITLE1=Neon Knights
TTITLE2=NIB
TTITLE3=Children Of The Sea
TTITLE4=Voodoo
TTITLE5=Black Sabbath
TTITLE6=War Pigs - Drum Solo (Partial)
TTITLE7=Iron Man
TTITLE8=The Mob Rules
TTITLE9=Heaven And Hell - Improvisation - Guitar Solo
EXTD=
EXTT0=
EXTT1=
EXTT2=
EXTT3=
EXTT4=
EXTT5=
EXTT6=
EXTT7=
EXTT8=
EXTT9=
PLAYORDER=
